<svg xmlns="http://www.w3.org/2000/svg" xmlns:xlink="http://www.w3.org/1999/xlink" width="500" zoomAndPan="magnify" viewBox="0 0 375 80.999996" height="108" preserveAspectRatio="xMidYMid meet" version="1.0"><defs><g/><clipPath id="2c27eddaa4"><path d="M 158.078125 21.953125 L 197 21.953125 L 197 60.953125 L 158.078125 60.953125 Z M 158.078125 21.953125 " clip-rule="nonzero"/></clipPath><clipPath id="fb60740513"><path d="M 163 25 L 197 25 L 197 60.953125 L 163 60.953125 Z M 163 25 " clip-rule="nonzero"/></clipPath></defs><g fill="#000000" fill-opacity="1"><g transform="translate(76.593538, 59.867888)"><g><path d="M 25.046875 -57.796875 C 28.117188 -57.796875 31.125 -57.347656 34.0625 -56.453125 C 37 -55.566406 39.175781 -54.6875 40.59375 -53.8125 L 42.65625 -52.4375 L 37.4375 -42.109375 C 37.019531 -42.390625 36.441406 -42.742188 35.703125 -43.171875 C 34.972656 -43.609375 33.597656 -44.191406 31.578125 -44.921875 C 29.566406 -45.660156 27.6875 -46.03125 25.9375 -46.03125 C 23.78125 -46.03125 22.117188 -45.570312 20.953125 -44.65625 C 19.785156 -43.738281 19.203125 -42.5 19.203125 -40.9375 C 19.203125 -40.164062 19.472656 -39.445312 20.015625 -38.78125 C 20.566406 -38.113281 21.507812 -37.398438 22.84375 -36.640625 C 24.175781 -35.878906 25.347656 -35.269531 26.359375 -34.8125 C 27.367188 -34.351562 28.925781 -33.664062 31.03125 -32.75 C 34.707031 -31.195312 37.835938 -29.078125 40.421875 -26.390625 C 43.015625 -23.703125 44.3125 -20.660156 44.3125 -17.265625 C 44.3125 -14.015625 43.726562 -11.171875 42.5625 -8.734375 C 41.394531 -6.304688 39.789062 -4.40625 37.75 -3.03125 C 35.707031 -1.65625 33.445312 -0.632812 30.96875 0.03125 C 28.488281 0.695312 25.804688 1.03125 22.921875 1.03125 C 20.441406 1.03125 18.007812 0.773438 15.625 0.265625 C 13.238281 -0.234375 11.238281 -0.859375 9.625 -1.609375 C 8.019531 -2.367188 6.578125 -3.113281 5.296875 -3.84375 C 4.015625 -4.582031 3.078125 -5.207031 2.484375 -5.71875 L 1.578125 -6.46875 L 8.046875 -17.34375 C 8.597656 -16.882812 9.351562 -16.296875 10.3125 -15.578125 C 11.28125 -14.867188 12.988281 -13.914062 15.4375 -12.71875 C 17.894531 -11.53125 20.066406 -10.9375 21.953125 -10.9375 C 27.410156 -10.9375 30.140625 -12.796875 30.140625 -16.515625 C 30.140625 -17.296875 29.941406 -18.019531 29.546875 -18.6875 C 29.160156 -19.351562 28.472656 -20.015625 27.484375 -20.671875 C 26.503906 -21.335938 25.632812 -21.863281 24.875 -22.25 C 24.113281 -22.644531 22.875 -23.242188 21.15625 -24.046875 C 19.4375 -24.847656 18.164062 -25.457031 17.34375 -25.875 C 13.90625 -27.570312 11.242188 -29.691406 9.359375 -32.234375 C 7.472656 -34.785156 6.53125 -37.53125 6.53125 -40.46875 C 6.53125 -45.550781 8.410156 -49.707031 12.171875 -52.9375 C 15.941406 -56.175781 20.234375 -57.796875 25.046875 -57.796875 Z M 25.046875 -57.796875 "/></g></g></g><g fill="#000000" fill-opacity="1"><g transform="translate(116.366314, 59.867888)"><g><path d="M 4.125 0 L 4.125 -59.171875 L 16.3125 -59.171875 L 16.3125 -31.578125 L 16.453125 -31.578125 C 19.609375 -34.742188 22.976562 -36.328125 26.5625 -36.328125 C 28.300781 -36.328125 30.03125 -36.097656 31.75 -35.640625 C 33.476562 -35.179688 35.128906 -34.46875 36.703125 -33.5 C 38.285156 -32.539062 39.570312 -31.175781 40.5625 -29.40625 C 41.550781 -27.644531 42.046875 -25.597656 42.046875 -23.265625 L 42.046875 0 L 29.859375 0 L 29.859375 -19.953125 C 29.859375 -21.785156 29.273438 -23.390625 28.109375 -24.765625 C 26.941406 -26.148438 25.414062 -26.84375 23.53125 -26.84375 C 21.695312 -26.84375 20.035156 -26.128906 18.546875 -24.703125 C 17.054688 -23.285156 16.3125 -21.703125 16.3125 -19.953125 L 16.3125 0 Z M 4.125 0 "/></g></g></g><g fill="#000000" fill-opacity="1"><g transform="translate(155.390406, 59.867888)"><g/></g></g><g fill="#000000" fill-opacity="1"><g transform="translate(167.707023, 59.867888)"><g/></g></g><g fill="#000000" fill-opacity="1"><g transform="translate(180.02364, 59.867888)"><g/></g></g><g fill="#000000" fill-opacity="1"><g transform="translate(192.35134, 59.867888)"><g><path d="M 4.125 0 L 4.125 -35.296875 L 16.3125 -35.296875 L 16.3125 -30.203125 L 16.453125 -30.203125 C 16.535156 -30.390625 16.679688 -30.617188 16.890625 -30.890625 C 17.097656 -31.171875 17.546875 -31.65625 18.234375 -32.34375 C 18.921875 -33.03125 19.65625 -33.648438 20.4375 -34.203125 C 21.21875 -34.753906 22.226562 -35.242188 23.46875 -35.671875 C 24.707031 -36.109375 25.96875 -36.328125 27.25 -36.328125 C 28.582031 -36.328125 29.890625 -36.144531 31.171875 -35.78125 C 32.453125 -35.414062 33.394531 -35.050781 34 -34.6875 L 34.953125 -34.125 L 29.859375 -23.8125 C 28.347656 -25.09375 26.238281 -25.734375 23.53125 -25.734375 C 22.0625 -25.734375 20.800781 -25.410156 19.75 -24.765625 C 18.695312 -24.128906 17.953125 -23.351562 17.515625 -22.4375 C 17.078125 -21.519531 16.765625 -20.738281 16.578125 -20.09375 C 16.398438 -19.445312 16.3125 -18.941406 16.3125 -18.578125 L 16.3125 0 Z M 4.125 0 "/></g></g></g><g fill="#000000" fill-opacity="1"><g transform="translate(220.150747, 59.867888)"><g><path d="M 6.1875 -35.296875 L 6.1875 -48.4375 L 18.375 -48.4375 L 18.375 -35.296875 L 25.8125 -35.296875 L 25.8125 -26.015625 L 18.375 -26.015625 L 18.375 -14.796875 C 18.375 -11.535156 19.289062 -9.90625 21.125 -9.90625 C 21.582031 -9.90625 22.0625 -9.992188 22.5625 -10.171875 C 23.070312 -10.359375 23.460938 -10.546875 23.734375 -10.734375 L 24.15625 -11.015625 L 27.1875 -1.171875 C 24.570312 0.296875 21.585938 1.03125 18.234375 1.03125 C 15.941406 1.03125 13.96875 0.628906 12.3125 -0.171875 C 10.664062 -0.972656 9.414062 -2.050781 8.5625 -3.40625 C 7.71875 -4.757812 7.109375 -6.179688 6.734375 -7.671875 C 6.367188 -9.160156 6.1875 -10.753906 6.1875 -12.453125 L 6.1875 -26.015625 L 1.09375 -26.015625 L 1.09375 -35.296875 Z M 6.1875 -35.296875 "/></g></g></g><g fill="#000000" fill-opacity="1"><g transform="translate(240.862475, 59.867888)"><g><path d="M 4.125 0 L 4.125 -59.171875 L 16.3125 -59.171875 L 16.3125 0 Z M 4.125 0 "/></g></g></g><g fill="#000000" fill-opacity="1"><g transform="translate(254.830588, 59.867888)"><g><path d="M 30.890625 -35.296875 L 44.9375 -35.296875 L 17.203125 17.890625 L 3.171875 17.890625 L 15.34375 -5.5 L -1.375 -35.296875 L 12.65625 -35.296875 L 22.5 -17.203125 Z M 30.890625 -35.296875 "/></g></g></g><g clip-path="url(#2c27eddaa4)"><path fill="#ff0000" d="M 196.945312 41.386719 C 196.945312 42.023438 196.917969 42.660156 196.855469 43.292969 C 196.792969 43.925781 196.699219 44.554688 196.574219 45.179688 C 196.449219 45.804688 196.296875 46.417969 196.109375 47.027344 C 195.925781 47.636719 195.710938 48.238281 195.46875 48.824219 C 195.222656 49.414062 194.953125 49.988281 194.652344 50.550781 C 194.351562 51.109375 194.027344 51.65625 193.671875 52.183594 C 193.316406 52.714844 192.9375 53.226562 192.535156 53.714844 C 192.132812 54.207031 191.703125 54.679688 191.253906 55.128906 C 190.804688 55.582031 190.332031 56.007812 189.839844 56.410156 C 189.347656 56.816406 188.839844 57.195312 188.308594 57.546875 C 187.78125 57.902344 187.234375 58.226562 186.671875 58.527344 C 186.113281 58.828125 185.539062 59.097656 184.949219 59.34375 C 184.359375 59.585938 183.761719 59.800781 183.152344 59.984375 C 182.542969 60.171875 181.925781 60.324219 181.304688 60.449219 C 180.679688 60.574219 180.050781 60.667969 179.417969 60.730469 C 178.785156 60.792969 178.148438 60.824219 177.511719 60.824219 C 176.875 60.824219 176.238281 60.792969 175.605469 60.730469 C 174.972656 60.667969 174.34375 60.574219 173.71875 60.449219 C 173.097656 60.324219 172.480469 60.171875 171.871094 59.984375 C 171.261719 59.800781 170.664062 59.585938 170.074219 59.34375 C 169.484375 59.097656 168.910156 58.828125 168.351562 58.527344 C 167.789062 58.226562 167.242188 57.902344 166.714844 57.546875 C 166.183594 57.195312 165.675781 56.816406 165.183594 56.410156 C 164.691406 56.007812 164.21875 55.582031 163.769531 55.128906 C 163.320312 54.679688 162.890625 54.207031 162.488281 53.714844 C 162.085938 53.226562 161.707031 52.714844 161.351562 52.183594 C 160.996094 51.65625 160.671875 51.109375 160.371094 50.550781 C 160.070312 49.988281 159.800781 49.414062 159.554688 48.824219 C 159.3125 48.238281 159.097656 47.636719 158.914062 47.027344 C 158.726562 46.417969 158.574219 45.804688 158.449219 45.179688 C 158.324219 44.554688 158.230469 43.925781 158.167969 43.292969 C 158.105469 42.660156 158.074219 42.023438 158.074219 41.386719 C 158.074219 40.75 158.105469 40.117188 158.167969 39.480469 C 158.230469 38.847656 158.324219 38.21875 158.449219 37.59375 C 158.574219 36.972656 158.726562 36.355469 158.914062 35.746094 C 159.097656 35.136719 159.3125 34.539062 159.554688 33.949219 C 159.800781 33.359375 160.070312 32.785156 160.371094 32.226562 C 160.671875 31.664062 160.996094 31.117188 161.351562 30.589844 C 161.707031 30.058594 162.085938 29.550781 162.488281 29.058594 C 162.890625 28.566406 163.320312 28.09375 163.769531 27.644531 C 164.21875 27.195312 164.691406 26.765625 165.183594 26.363281 C 165.675781 25.960938 166.183594 25.582031 166.714844 25.226562 C 167.242188 24.875 167.789062 24.546875 168.351562 24.246094 C 168.910156 23.945312 169.484375 23.675781 170.074219 23.429688 C 170.664062 23.1875 171.261719 22.972656 171.871094 22.789062 C 172.480469 22.605469 173.097656 22.449219 173.71875 22.324219 C 174.34375 22.199219 174.972656 22.105469 175.605469 22.046875 C 176.238281 21.984375 176.875 21.953125 177.511719 21.953125 C 178.148438 21.953125 178.785156 21.984375 179.417969 22.046875 C 180.050781 22.105469 180.679688 22.199219 181.304688 22.324219 C 181.925781 22.449219 182.542969 22.605469 183.152344 22.789062 C 183.761719 22.972656 184.359375 23.1875 184.949219 23.429688 C 185.539062 23.675781 186.113281 23.945312 186.671875 24.246094 C 187.234375 24.546875 187.78125 24.875 188.308594 25.226562 C 188.839844 25.582031 189.347656 25.960938 189.839844 26.363281 C 190.332031 26.765625 190.804688 27.195312 191.253906 27.644531 C 191.703125 28.09375 192.132812 28.566406 192.535156 29.058594 C 192.9375 29.550781 193.316406 30.058594 193.671875 30.589844 C 194.027344 31.117188 194.351562 31.664062 194.652344 32.226562 C 194.953125 32.785156 195.222656 33.359375 195.46875 33.949219 C 195.710938 34.539062 195.925781 35.136719 196.109375 35.746094 C 196.296875 36.355469 196.449219 36.972656 196.574219 37.59375 C 196.699219 38.21875 196.792969 38.847656 196.855469 39.480469 C 196.917969 40.117188 196.945312 40.75 196.945312 41.386719 Z M 196.945312 41.386719 " fill-opacity="1" fill-rule="nonzero"/></g><g clip-path="url(#fb60740513)"><path fill="#ff0000" d="M 196.945312 41.386719 C 196.945312 52.121094 188.246094 60.824219 177.511719 60.824219 C 171.820312 60.824219 166.695312 58.375 163.144531 54.472656 C 166.25 56.585938 170.003906 57.816406 174.042969 57.816406 C 184.777344 57.816406 193.480469 49.113281 193.480469 38.382812 C 193.480469 33.339844 191.558594 28.746094 188.414062 25.292969 C 193.5625 28.789062 196.945312 34.691406 196.945312 41.386719 Z M 196.945312 41.386719 " fill-opacity="1" fill-rule="nonzero"/></g><path fill="#ffffff" d="M 172.257812 50.511719 C 171.675781 50.511719 171.175781 50.308594 170.753906 49.90625 C 170.308594 49.480469 170.085938 48.960938 170.089844 48.34375 L 170.089844 34.429688 C 170.085938 33.8125 170.308594 33.292969 170.753906 32.871094 C 171.175781 32.46875 171.675781 32.265625 172.257812 32.261719 C 172.644531 32.261719 173.003906 32.359375 173.339844 32.554688 L 185.390625 39.511719 C 185.726562 39.703125 185.992188 39.96875 186.183594 40.304688 C 186.378906 40.640625 186.472656 41 186.472656 41.386719 C 186.472656 41.773438 186.378906 42.132812 186.183594 42.46875 C 185.992188 42.804688 185.726562 43.070312 185.390625 43.261719 L 173.339844 50.21875 C 173.003906 50.414062 172.644531 50.511719 172.257812 50.511719 Z M 172.257812 50.511719 " fill-opacity="1" fill-rule="nonzero"/></svg>